<?xml version="1.0" encoding="UTF-8" standalone="no"?>
<svg
   xmlns:dc="http://purl.org/dc/elements/1.1/"
   xmlns:cc="http://creativecommons.org/ns#"
   xmlns:rdf="http://www.w3.org/1999/02/22-rdf-syntax-ns#"
   xmlns:svg="http://www.w3.org/2000/svg"
   xmlns="http://www.w3.org/2000/svg"
   xmlns:sodipodi="http://sodipodi.sourceforge.net/DTD/sodipodi-0.dtd"
   xmlns:inkscape="http://www.inkscape.org/namespaces/inkscape"
   inkscape:version="1.0 (4035a4fb49, 2020-05-01)"
   height="16"
   width="13.714286"
   sodipodi:docname="download-icon.svg"
   id="svg4"
   version="1.1"
   viewBox="0 0 13.714286 16">
  <metadata
     id="metadata10">
    <rdf:RDF>
      <cc:Work
         rdf:about="">
        <dc:format>image/svg+xml</dc:format>
        <dc:type
           rdf:resource="http://purl.org/dc/dcmitype/StillImage" />
        <dc:title></dc:title>
      </cc:Work>
    </rdf:RDF>
  </metadata>
  <defs
     id="defs8" />
  <sodipodi:namedview
     inkscape:current-layer="svg4"
     inkscape:window-maximized="1"
     inkscape:window-y="-8"
     inkscape:window-x="-8"
     inkscape:cy="15.412366"
     inkscape:cx="46.502351"
     inkscape:zoom="16.241359"
     fit-margin-bottom="0"
     fit-margin-right="0"
     fit-margin-left="0"
     fit-margin-top="0"
     showgrid="false"
     id="namedview6"
     inkscape:window-height="1369"
     inkscape:window-width="2560"
     inkscape:pageshadow="2"
     inkscape:pageopacity="0"
     guidetolerance="10"
     gridtolerance="10"
     objecttolerance="10"
     borderopacity="1"
     bordercolor="#666666"
     pagecolor="#ffffff" />
  <!--! Font Awesome Pro 6.1.1 by @fontawesome - https://fontawesome.com License - https://fontawesome.com/license (Commercial License) Copyright 2022 Fonticons, Inc. -->
  <path
     style="stroke-width:0.0357143"
     id="path2"
     d="M 12.857143,14.253572 H 0.85714286 C 0.38392857,14.253572 0,14.637857 0,15.111429 0,15.614286 0.38392857,16 0.85714286,16 H 12.857143 c 0.473214,0 0.857143,-0.384286 0.857143,-0.857857 0,-0.474286 -0.382143,-0.888571 -0.857143,-0.888571 z M 10.803571,6.275001 7.7142857,9.560714 v -8.7 C 7.7142857,0.384286 7.3321429,0 6.8571429,0 6.3821429,0 6,0.384286 6,0.857857 v 8.7 L 2.9096428,6.275001 C 2.7410714,6.092857 2.5135714,6.003572 2.2857143,6.003572 c -0.2109286,0 -0.4217857,0.07707 -0.5871429,0.233427 C 1.3537143,6.560892 1.3371429,7.103786 1.6617504,7.448785 L 6.2331791,12.3095 c 0.3236428,0.346214 0.9242856,0.346214 1.2478571,0 L 12.052465,7.448785 C 12.37725,7.103679 12.3605,6.560928 12.015645,6.236999 11.671431,5.910714 11.128573,5.896428 10.803573,6.275009 Z" />
</svg>
