<svg width="100%" height="100%" viewBox="0 0 20 40" fill="none" xmlns="http://www.w3.org/2000/svg">
<path d="M14.375 23H9.125V37H14.375C15.3416 37 16.125 36.2166 16.125 35.25V24.75C16.125 23.7834 15.3402 23 14.375 23ZM4.75 24.75V25.8438H3.65625C3.29395 25.8438 3 26.1391 3 26.5C3 26.8609 3.29395 27.1562 3.65625 27.1562H4.75V29.3438H3.65625C3.29395 29.3438 3 29.6391 3 30C3 30.3609 3.29395 30.6562 3.65625 30.6562H4.75V32.8438H3.65625C3.29395 32.8438 3 33.1391 3 33.5C3 33.8609 3.29395 34.1562 3.65625 34.1562H4.75V35.25C4.75 36.2166 5.5334 37 6.5 37H8.25V23H6.5C5.5334 23 4.75 23.7834 4.75 24.75Z" fill="black"/>
<path d="M14.375 3H9.125V17H14.375C15.3416 17 16.125 16.2166 16.125 15.25V4.75C16.125 3.7834 15.3402 3 14.375 3ZM4.75 4.75V5.84375H3.65625C3.29395 5.84375 3 6.13906 3 6.5C3 6.86094 3.29395 7.15625 3.65625 7.15625H4.75V9.34375H3.65625C3.29395 9.34375 3 9.63906 3 10C3 10.3609 3.29395 10.6562 3.65625 10.6562H4.75V12.8438H3.65625C3.29395 12.8438 3 13.1391 3 13.5C3 13.8609 3.29395 14.1562 3.65625 14.1562H4.75V15.25C4.75 16.2166 5.5334 17 6.5 17H8.25V3H6.5C5.5334 3 4.75 3.7834 4.75 4.75Z" fill="white"/>
</svg>
