<?xml version="1.0" encoding="UTF-8" standalone="no"?>
<svg
   xmlns:dc="http://purl.org/dc/elements/1.1/"
   xmlns:cc="http://creativecommons.org/ns#"
   xmlns:rdf="http://www.w3.org/1999/02/22-rdf-syntax-ns#"
   xmlns:svg="http://www.w3.org/2000/svg"
   xmlns="http://www.w3.org/2000/svg"
   xmlns:sodipodi="http://sodipodi.sourceforge.net/DTD/sodipodi-0.dtd"
   xmlns:inkscape="http://www.inkscape.org/namespaces/inkscape"
   height="16"
   width="20.570539"
   viewBox="0 0 20.570539 16"
   version="1.1"
   id="svg4"
   sodipodi:docname="ic-view-detail-orange.svg"
   inkscape:version="1.0 (4035a4fb49, 2020-05-01)">
  <metadata
     id="metadata10">
    <rdf:RDF>
      <cc:Work
         rdf:about="">
        <dc:format>image/svg+xml</dc:format>
        <dc:type
           rdf:resource="http://purl.org/dc/dcmitype/StillImage" />
        <dc:title></dc:title>
      </cc:Work>
    </rdf:RDF>
  </metadata>
  <defs
     id="defs8" />
  <sodipodi:namedview
     fit-margin-bottom="0"
     fit-margin-right="0"
     fit-margin-left="0"
     fit-margin-top="0"
     inkscape:document-rotation="0"
     pagecolor="#ffffff"
     bordercolor="#666666"
     borderopacity="1"
     objecttolerance="10"
     gridtolerance="10"
     guidetolerance="10"
     inkscape:pageopacity="0"
     inkscape:pageshadow="2"
     inkscape:window-width="2560"
     inkscape:window-height="1369"
     id="namedview6"
     showgrid="false"
     inkscape:zoom="32.482718"
     inkscape:cx="10.955426"
     inkscape:cy="7.626176"
     inkscape:window-x="-8"
     inkscape:window-y="-8"
     inkscape:window-maximized="1"
     inkscape:current-layer="svg4" />
  <!--! Font Awesome Pro 6.1.2 by @fontawesome - https://fontawesome.com License - https://fontawesome.com/license (Commercial License) Copyright 2022 Fonticons, Inc. -->
  <path
     d="m 14.857147,8 c 0,2.525 -2.046428,4.571429 -4.571428,4.571429 C 7.7607187,12.571429 5.7142902,10.525 5.7142902,8 c 0,-2.525 2.0464285,-4.571429 4.5714288,-4.571429 2.525,0 4.571428,2.046429 4.571428,4.571429 z M 10.285719,4.571429 C 8.3607188,4.571429 6.8571473,6.075 6.8571473,8 c 0,1.892857 1.5035715,3.428571 3.4285717,3.428571 1.892857,0 3.428571,-1.535714 3.428571,-3.428571 0,-1.925 -1.535714,-3.428571 -3.428571,-3.428571 z M 17.16429,2.878571 c 1.671429,1.55 2.789286,3.375 3.317857,4.682143 0.117857,0.282143 0.117857,0.596429 0,0.878572 -0.528571,1.275 -1.646428,3.1 -3.317857,4.682143 C 15.482147,14.685714 13.171433,16 10.285719,16 7.4000045,16 5.0892902,14.685714 3.4078616,13.121429 1.736433,11.539286 0.61929018,9.714286 0.08789732,8.439286 c -0.11719643,-0.282143 -0.11719643,-0.596429 0,-0.878572 C 0.61929018,6.253571 1.736433,4.428571 3.4078616,2.878571 5.0892902,1.315714 7.4000045,0 10.285719,0 13.171433,0 15.482147,1.315714 17.16429,2.878571 Z M 1.1428616,8 c 0.4760714,1.142857 1.5046429,2.857143 3.0428571,4.285714 1.5392858,1.428572 3.5857143,2.571429 6.1000003,2.571429 2.514285,0 4.560714,-1.142857 6.1,-2.571429 C 17.925004,10.857143 18.953576,9.142857 19.428576,8 c -0.475,-1.175 -1.503572,-2.889286 -3.042857,-4.285714 -1.539286,-1.428929 -3.585715,-2.571429 -6.1,-2.571429 -2.514286,0 -4.5607145,1.1425 -6.1000003,2.571429 C 2.6475045,5.110714 1.618933,6.825 1.1428616,8 Z"
     id="path2"
     style="fill:#ffa737;fill-opacity:1;stroke-width:0.0357143" />
</svg>
