<svg width="100%" height="100%" viewBox="0 0 20 40" fill="none" xmlns="http://www.w3.org/2000/svg">
<path d="M15.25 35.4719H4.75C4.33594 35.4719 4 35.8081 4 36.2225C4 36.6625 4.33594 37 4.75 37H15.25C15.6641 37 16 36.6638 16 36.2494C16 35.8344 15.6656 35.4719 15.25 35.4719ZM13.4531 28.4906L10.75 31.3656V23.7531C10.75 23.3362 10.4156 23 10 23C9.58437 23 9.25 23.3363 9.25 23.7506V31.3631L6.54594 28.4906C6.39844 28.3312 6.19938 28.2531 6 28.2531C5.81544 28.2531 5.63094 28.3206 5.48625 28.4574C5.1845 28.7408 5.17 29.2158 5.45403 29.5177L9.45403 33.7708C9.73722 34.0737 10.2628 34.0737 10.5459 33.7708L14.5459 29.5177C14.8301 29.2157 14.8154 28.7408 14.5137 28.4574C14.2125 28.1719 13.7375 28.1594 13.4531 28.4906Z" fill="black"/>
<path d="M15.25 15.4719H4.75C4.33594 15.4719 4 15.8081 4 16.2225C4 16.6625 4.33594 17 4.75 17H15.25C15.6641 17 16 16.6638 16 16.2494C16 15.8344 15.6656 15.4719 15.25 15.4719ZM13.4531 8.49062L10.75 11.3656V3.75312C10.75 3.33625 10.4156 3 10 3C9.58437 3 9.25 3.33625 9.25 3.75063V11.3631L6.54594 8.49062C6.39844 8.33125 6.19938 8.25313 6 8.25313C5.81544 8.25313 5.63094 8.32056 5.48625 8.45738C5.1845 8.74078 5.17 9.21581 5.45403 9.51769L9.45403 13.7708C9.73722 14.0737 10.2628 14.0737 10.5459 13.7708L14.5459 9.51769C14.8301 9.21572 14.8154 8.74081 14.5137 8.45738C14.2125 8.17188 13.7375 8.15937 13.4531 8.49062Z" fill="white"/>
</svg>
