<?xml version="1.0" encoding="UTF-8" standalone="no"?>
<!DOCTYPE svg PUBLIC "-//W3C//DTD SVG 1.1//EN" "http://www.w3.org/Graphics/SVG/1.1/DTD/svg11.dtd">
<svg width="100%" height="100%" viewBox="0 0 30 60" version="1.1" xmlns="http://www.w3.org/2000/svg" xmlns:xlink="http://www.w3.org/1999/xlink" xml:space="preserve" xmlns:serif="http://www.serif.com/" style="fill-rule:evenodd;clip-rule:evenodd;stroke-linejoin:round;stroke-miterlimit:1.41421;">
    <g id="path16153" transform="matrix(0.305297,0,0,0.305297,-4209.62,-1479.72)">
        <path d="M13868.4,4975.8L13856.2,4963.53C13854.8,4962.21 13853.1,4961.47 13851.2,4961.47L13812,4961.47C13808.1,4961.47 13805,4964.62 13805,4968.49L13805,5019.96C13805,5023.84 13808.1,5026.98 13812,5026.98L13863.5,5026.98C13867.3,5026.98 13870.5,5023.84 13870.5,5019.96L13870.5,4980.76C13870.5,4978.9 13869.7,4977.11 13868.4,4975.8ZM13837.7,5017.62C13832.6,5017.62 13828.4,5013.43 13828.4,5008.26C13828.4,5003.1 13832.6,4998.91 13837.7,4998.91C13842.9,4998.91 13847.1,5003.1 13847.1,5008.26C13847.1,5013.43 13842.9,5017.62 13837.7,5017.62ZM13851.8,4973.1L13851.8,4987.79C13851.8,4988.76 13851,4989.55 13850,4989.55L13816.1,4989.55C13815.1,4989.55 13814.3,4988.76 13814.3,4987.79L13814.3,4972.59C13814.3,4971.62 13815.1,4970.83 13816.1,4970.83L13849.5,4970.83C13850,4970.83 13850.4,4971.02 13850.7,4971.35L13851.3,4971.85C13851.6,4972.18 13851.8,4972.63 13851.8,4973.09L13851.8,4973.1Z" style="fill:rgb(47,47,47);fill-rule:nonzero;"/>
    </g>
    <g id="path161531" serif:id="path16153" transform="matrix(0.305297,0,0,0.305297,-4209.62,-1509.72)">
        <path d="M13868.4,4975.8L13856.2,4963.53C13854.8,4962.21 13853.1,4961.47 13851.2,4961.47L13812,4961.47C13808.1,4961.47 13805,4964.62 13805,4968.49L13805,5019.96C13805,5023.84 13808.1,5026.98 13812,5026.98L13863.5,5026.98C13867.3,5026.98 13870.5,5023.84 13870.5,5019.96L13870.5,4980.76C13870.5,4978.9 13869.7,4977.11 13868.4,4975.8ZM13837.7,5017.62C13832.6,5017.62 13828.4,5013.43 13828.4,5008.26C13828.4,5003.1 13832.6,4998.91 13837.7,4998.91C13842.9,4998.91 13847.1,5003.1 13847.1,5008.26C13847.1,5013.43 13842.9,5017.62 13837.7,5017.62ZM13851.8,4973.1L13851.8,4987.79C13851.8,4988.76 13851,4989.55 13850,4989.55L13816.1,4989.55C13815.1,4989.55 13814.3,4988.76 13814.3,4987.79L13814.3,4972.59C13814.3,4971.62 13815.1,4970.83 13816.1,4970.83L13849.5,4970.83C13850,4970.83 13850.4,4971.02 13850.7,4971.35L13851.3,4971.85C13851.6,4972.18 13851.8,4972.63 13851.8,4973.09L13851.8,4973.1Z" style="fill:white;fill-rule:nonzero;"/>
    </g>
</svg>
